G04 DipTrace 3.3.0.0*
G04 BottomMask.gbr*
%MOIN*%
G04 #@! TF.FileFunction,Soldermask,Bot*
G04 #@! TF.Part,Single*
%ADD51C,0.03937*%
%ADD64C,0.067*%
%ADD66R,0.067X0.067*%
%ADD68C,0.068*%
%ADD70C,0.208*%
%ADD82O,0.12611X0.08674*%
%ADD84O,0.08674X0.12611*%
%ADD86C,0.067055*%
%ADD88R,0.067055X0.067055*%
%FSLAX26Y26*%
G04*
G70*
G90*
G75*
G01*
G04 BotMask*
%LPD*%
D88*
X3012750Y3281500D3*
D86*
X2912750D3*
X2812750D3*
X2712750D3*
D88*
X1744000Y3794000D3*
D86*
X1844000D3*
X1944000D3*
X2044000D3*
X2144000D3*
X2244000D3*
X2344000D3*
X2444000D3*
D88*
X944000Y494000D3*
D86*
X1044000D3*
X1144000D3*
X1244000D3*
D88*
X494000Y2844000D3*
D86*
X594000D3*
X694000D3*
X794000D3*
X894000D3*
X994000D3*
X1094000D3*
X1194000D3*
X1294000D3*
X1394000D3*
X1494000D3*
X1594000D3*
X1694000D3*
X1794000D3*
X1894000D3*
X1994000D3*
X2094000D3*
X2194000D3*
X2294000D3*
D88*
X1944000Y494000D3*
D86*
X2044000D3*
X2144000D3*
X2244000D3*
D88*
X3794000Y1694000D3*
D86*
Y1594000D3*
Y1494000D3*
Y1394000D3*
Y1294000D3*
Y1194000D3*
Y1094000D3*
Y994000D3*
D88*
X2944000Y494000D3*
D86*
X3044000D3*
X3144000D3*
X3244000D3*
D88*
X794000Y3794000D3*
D86*
X894000D3*
X994000D3*
X1094000D3*
X1194000D3*
X1294000D3*
X1394000D3*
X1494000D3*
D84*
X3344000Y2419000D3*
X3580220D3*
D82*
X3462110Y2604039D3*
D51*
X3815102Y3052866D3*
Y3367827D3*
D88*
X594000Y1244000D3*
D86*
X694000D3*
X594000Y1144000D3*
X694000D3*
X594000Y1044000D3*
X694000D3*
D88*
X1594000Y1244000D3*
D86*
X1694000D3*
X1594000Y1144000D3*
X1694000D3*
X1594000Y1044000D3*
X1694000D3*
D88*
X2594000Y1244000D3*
D86*
X2694000D3*
X2594000Y1144000D3*
X2694000D3*
X2594000Y1044000D3*
X2694000D3*
D70*
X544000Y544000D3*
X3744000D3*
Y3744000D3*
X544000D3*
D68*
X494000Y2744000D3*
X594000D3*
X694000D3*
X794000D3*
X894000D3*
X994000D3*
X1094000D3*
X1194000D3*
X1294000D3*
X1394000D3*
X1494000D3*
X1594000D3*
X1694000D3*
X1794000D3*
X1894000D3*
X1994000D3*
X2094000D3*
X2194000D3*
X2294000D3*
X494000Y1844000D3*
X594000D3*
X694000D3*
X794000D3*
X894000D3*
X994000D3*
X1094000D3*
X1194000D3*
X1294000D3*
X1394000D3*
X1494000D3*
X1594000D3*
X1694000D3*
X1794000D3*
X1894000D3*
X1994000D3*
X2094000D3*
X2194000D3*
X2294000D3*
D66*
X844000Y1344000D3*
D64*
Y1244000D3*
Y1144000D3*
Y1044000D3*
Y944000D3*
Y844000D3*
Y744000D3*
Y644000D3*
X1344000D3*
Y744000D3*
Y844000D3*
Y944000D3*
Y1044000D3*
Y1144000D3*
Y1244000D3*
Y1344000D3*
D66*
X1844000D3*
D64*
Y1244000D3*
Y1144000D3*
Y1044000D3*
Y944000D3*
Y844000D3*
Y744000D3*
Y644000D3*
X2344000D3*
Y744000D3*
Y844000D3*
Y944000D3*
Y1044000D3*
Y1144000D3*
Y1244000D3*
Y1344000D3*
D66*
X2844000D3*
D64*
Y1244000D3*
Y1144000D3*
Y1044000D3*
Y944000D3*
Y844000D3*
Y744000D3*
Y644000D3*
X3344000D3*
Y744000D3*
Y844000D3*
Y944000D3*
Y1044000D3*
Y1144000D3*
Y1244000D3*
Y1344000D3*
M02*
