M48
INCH
T01C0.013
T02C0.0191
T03C0.035
T04C0.0354
T05C0.0394
T06C0.14
%
T01
X+028510Y+026170
X+028770Y+026170
X+029030Y+026170
X+029030Y+025780
X+028770Y+025780
X+028510Y+025780
X+028510Y+025390
X+028770Y+025390
X+029030Y+025390
X+031110Y+029290
X+031110Y+029680
T02
X+026752Y+019065
X+027440Y+018378
X+027440Y+017627
X+025940Y+017065
X+025440Y+018378
X+028315Y+019878
X+029878Y+020253
X+030440Y+019378
X+032127Y+019752
X+032565Y+020315
X+032003Y+020877
X+032502Y+021378
X+032627Y+022002
X+034315Y+021440
X+034877Y+022002
X+034190Y+019502
X+037002Y+019565
X+037565Y+022002
X+032565Y+017065
X+032252Y+016628
X+031940Y+016190
X+031690Y+017690
X+028138Y+022140
X+027730Y+023180
X+025390Y+024480
X+023960Y+025190
X+024480Y+026170
X+024870Y+022140
X+021940Y+021752
X+016440Y+023190
X+016440Y+025190
X+013440Y+026170
X+012440Y+023190
X+014440Y+022690
X+013940Y+021690
X+015002Y+020378
X+015940Y+021065
X+012940Y+019815
X+010440Y+019940
X+006440Y+019940
X+005440Y+022690
X+007440Y+031190
X+008940Y+035190
X+010940Y+035190
X+012940Y+035190
X+014940Y+035190
X+018440Y+034940
X+020440Y+034940
X+022440Y+034940
X+024440Y+034940
X+026170Y+030850
X+023440Y+030190
X+021440Y+030190
X+019440Y+030190
X+017440Y+030190
X+012940Y+031190
X+014440Y+014690
X+015190Y+014690
X+016690Y+009190
X+016690Y+008190
X+020190Y+010440
X+020190Y+010940
X+024220Y+014600
X+024740Y+014600
X+026690Y+009190
X+026690Y+008190
X+030190Y+010440
X+030190Y+010940
X+034750Y+029420
X+034490Y+031110
X+035502Y+032877
X+034750Y+035140
X+037350Y+035140
X+037350Y+029420
X+010190Y+010940
X+010190Y+010440
X+007320Y+008490
X+007320Y+006150
T03
X+004940Y+027440
X+005940Y+027440
X+006940Y+027440
X+007940Y+027440
X+008940Y+027440
X+009940Y+027440
X+010940Y+027440
X+011940Y+027440
X+012940Y+027440
X+013940Y+027440
X+014940Y+027440
X+015940Y+027440
X+016940Y+027440
X+017940Y+027440
X+018940Y+027440
X+019940Y+027440
X+020940Y+027440
X+021940Y+027440
X+022940Y+027440
X+022940Y+018440
X+021940Y+018440
X+020940Y+018440
X+019940Y+018440
X+018940Y+018440
X+017940Y+018440
X+016940Y+018440
X+015940Y+018440
X+014940Y+018440
X+013940Y+018440
X+012940Y+018440
X+011940Y+018440
X+010940Y+018440
X+009940Y+018440
X+008940Y+018440
X+007940Y+018440
X+006940Y+018440
X+005940Y+018440
X+004940Y+018440
X+008440Y+013440
X+008440Y+012440
X+008440Y+011440
X+008440Y+010440
X+008440Y+009440
X+008440Y+008440
X+008440Y+007440
X+008440Y+006440
X+013440Y+006440
X+013440Y+007440
X+013440Y+008440
X+013440Y+009440
X+013440Y+010440
X+013440Y+011440
X+013440Y+012440
X+013440Y+013440
X+018440Y+013440
X+018440Y+012440
X+018440Y+011440
X+018440Y+010440
X+018440Y+009440
X+018440Y+008440
X+018440Y+007440
X+018440Y+006440
X+023440Y+006440
X+023440Y+007440
X+023440Y+008440
X+023440Y+009440
X+023440Y+010440
X+023440Y+011440
X+023440Y+012440
X+023440Y+013440
X+028440Y+013440
X+028440Y+012440
X+028440Y+011440
X+028440Y+010440
X+028440Y+009440
X+028440Y+008440
X+028440Y+007440
X+028440Y+006440
X+033440Y+006440
X+033440Y+007440
X+033440Y+008440
X+033440Y+009440
X+033440Y+010440
X+033440Y+011440
X+033440Y+012440
X+033440Y+013440
T04
X+030128Y+032815
X+029128Y+032815
X+028128Y+032815
X+027128Y+032815
X+024440Y+037940
X+023440Y+037940
X+022440Y+037940
X+021440Y+037940
X+020440Y+037940
X+019440Y+037940
X+018440Y+037940
X+017440Y+037940
X+014940Y+037940
X+013940Y+037940
X+012940Y+037940
X+011940Y+037940
X+010940Y+037940
X+009940Y+037940
X+008940Y+037940
X+007940Y+037940
X+007940Y+028440
X+008940Y+028440
X+009940Y+028440
X+010940Y+028440
X+011940Y+028440
X+012940Y+028440
X+013940Y+028440
X+014940Y+028440
X+015940Y+028440
X+016940Y+028440
X+017940Y+028440
X+018940Y+028440
X+019940Y+028440
X+020940Y+028440
X+021940Y+028440
X+022940Y+028440
X+006940Y+028440
X+005940Y+028440
X+004940Y+028440
X+005940Y+012440
X+006940Y+012440
X+006940Y+011440
X+005940Y+011440
X+005940Y+010440
X+006940Y+010440
X+009440Y+004940
X+010440Y+004940
X+011440Y+004940
X+012440Y+004940
X+015940Y+010440
X+015940Y+011440
X+015940Y+012440
X+016940Y+012440
X+016940Y+011440
X+016940Y+010440
X+019440Y+004940
X+020440Y+004940
X+021440Y+004940
X+022440Y+004940
X+025940Y+010440
X+025940Y+011440
X+025940Y+012440
X+026940Y+012440
X+026940Y+011440
X+026940Y+010440
X+029440Y+004940
X+030440Y+004940
X+031440Y+004940
X+032440Y+004940
X+037940Y+009940
X+037940Y+010940
X+037940Y+011940
X+037940Y+012940
X+037940Y+013940
X+037940Y+014940
X+037940Y+015940
X+037940Y+016940
T05
X+033440Y+023993G85X+033440Y+024387
X+034818Y+026040G85X+034424Y+026040
X+035802Y+023993G85X+035802Y+024387
X+038151Y+030529
X+038151Y+033678
T06
X+005440Y+005440
X+037440Y+005440
X+037440Y+037440
X+005440Y+037440
T00
M30
