G04 DipTrace 3.3.0.0*
G04 Top.gbr*
%MOIN*%
G04 #@! TF.FileFunction,Copper,L1,Top*
G04 #@! TF.Part,Single*
G04 #@! TA.AperFunction,Conductor*
%ADD14C,0.016*%
%ADD15C,0.02*%
%ADD16C,0.012*%
G04 #@! TA.AperFunction,CopperBalancing*
%ADD17C,0.025*%
G04 #@! TA.AperFunction,Conductor*
%ADD18C,0.032*%
G04 #@! TA.AperFunction,ViaPad*
%ADD19C,0.03*%
G04 #@! TA.AperFunction,ComponentPad*
%ADD20C,0.06*%
G04 #@! TA.AperFunction,Conductor*
%ADD21C,0.035*%
%ADD22C,0.05*%
%ADD25R,0.062992X0.163386*%
%ADD26R,0.059055X0.051181*%
%ADD27R,0.051181X0.059055*%
%ADD28R,0.070866X0.062992*%
%ADD30R,0.098425X0.066929*%
G04 #@! TA.AperFunction,ComponentPad*
%ADD31R,0.059055X0.059055*%
%ADD32C,0.059055*%
%ADD33O,0.07874X0.11811*%
%ADD34O,0.11811X0.07874*%
%ADD35R,0.051181X0.027559*%
%ADD36R,0.07874X0.047244*%
%ADD37R,0.055118X0.047244*%
%ADD38R,0.055118X0.031496*%
%ADD39R,0.137795X0.09252*%
G04 #@! TA.AperFunction,ComponentPad*
%ADD40C,0.2*%
%ADD41R,0.059X0.059*%
%ADD42C,0.059*%
%ADD44R,0.062992X0.024016*%
%ADD45R,0.10315X0.138189*%
%ADD47R,0.043307X0.023622*%
G04 #@! TA.AperFunction,ViaPad*
%ADD48C,0.04*%
%FSLAX26Y26*%
G04*
G70*
G90*
G75*
G01*
G04 Top*
%LPD*%
X2594000Y1244000D2*
D14*
Y1144000D1*
Y1044000D1*
X1594000Y1244000D2*
Y1144000D1*
Y1044000D1*
X2594000D2*
Y744000D1*
Y444000D1*
X1594000D1*
Y744000D1*
Y1044000D1*
X2294000Y2844000D2*
Y2744000D1*
X1744000Y3126480D2*
Y3019000D1*
X1944000Y3126480D2*
Y3019000D1*
X2144000Y3126480D2*
Y3019000D1*
X2344000Y3126480D2*
Y3019000D1*
X2294000Y2844000D2*
Y2919000D1*
X2344000Y2969000D1*
Y3019000D1*
X2294000Y2744000D2*
D15*
Y2747000D1*
Y2744000D2*
D16*
X2432000D1*
X2438000D1*
X2487000Y2695000D1*
Y2214000D1*
X2813846D2*
X3090453D1*
X3162749D1*
Y1900251D1*
X3225249Y1837751D1*
Y1750249D1*
X3131500Y1656500D1*
Y1444000D1*
X3544000D1*
Y744000D1*
Y544000D1*
X3444000Y444000D1*
X2594000D1*
X2344000Y744000D2*
X2594000D1*
X1344000D2*
X1594000D1*
X3344000D2*
X3544000D1*
X2812750Y3281500D2*
Y3241750D1*
X2773000Y3202000D1*
X2604000D1*
X2487000Y3085000D1*
Y2799000D1*
X2432000Y2744000D1*
X594000Y1244000D2*
Y1144000D1*
Y1044000D1*
Y987000D1*
X732000Y849000D1*
Y615000D2*
Y472000D1*
X760000Y444000D1*
X1594000D1*
X2812750Y3281500D2*
Y3325250D1*
X2844000Y3356500D1*
X3156500D1*
X3306000Y3207000D1*
Y3215000D1*
X3318921Y3202079D1*
X3384000D1*
X3106500Y1844000D2*
Y1881500D1*
X3087750Y1900250D1*
X2994000D1*
X3087750D2*
X3086045Y1901955D1*
Y2209592D1*
X3090453Y2214000D1*
X994000Y2844000D2*
Y2744000D1*
X894000Y3436520D2*
Y3519000D1*
X1094000Y3436520D2*
Y3519000D1*
X1294000Y3436520D2*
Y3519000D1*
X1494000Y3436520D2*
Y3519000D1*
X1844000Y3401283D2*
Y3494000D1*
X2044000Y3401283D2*
Y3494000D1*
X2244000Y3401283D2*
Y3494000D1*
X2444000Y3401283D2*
Y3494000D1*
X3019000Y1094000D2*
X3069000D1*
X3094000Y1069000D1*
X3019000Y1044000D2*
X3069000D1*
X3094000Y1069000D1*
X2019000Y1094000D2*
X2069000D1*
X2094000Y1069000D1*
X2044000Y1044000D2*
X2069000D1*
X2094000Y1069000D1*
X2019000Y1044000D2*
X2069000D1*
X1019000Y1094000D2*
X1069000D1*
X1094000Y1069000D1*
X1019000Y1044000D2*
X1069000D1*
X1094000Y1069000D1*
X2617000Y2370000D2*
Y2383000D1*
X2695000Y2461000D1*
X3475000Y3514000D2*
X3423654D1*
X3417465Y3520189D1*
X3735000Y3514000D2*
X3793165D1*
X3799354Y3520189D1*
X3475000Y2942000D2*
X3417701D1*
X3417465Y2942236D1*
X3735000Y2942000D2*
X3799118D1*
X3799354Y2942236D1*
X3449000Y3111000D2*
X3388465D1*
X3384000Y3115465D1*
X3106500Y1769197D2*
X3168803D1*
X3169000Y1769000D1*
X2806500Y1762947D2*
X2744197D1*
X2744000Y1762750D1*
X2994000Y1937652D2*
X3043902D1*
X3044000Y1937750D1*
X2744000Y1906500D2*
X2675250D1*
X3700249Y1894000D2*
Y1956500D1*
X1094000Y2844000D2*
Y2744000D1*
X844000Y744000D2*
X619000D1*
X519000Y844000D1*
Y1606500D1*
X644000Y1731500D1*
Y1994000D1*
X1044000D2*
Y2794000D1*
X1094000Y2844000D1*
X1394000D2*
Y2744000D1*
Y2844000D2*
X1444000Y2794000D1*
Y2269000D1*
X544000D2*
Y1753000D1*
X469000Y1678000D1*
Y844000D1*
X619000Y694000D1*
X794000D1*
X844000Y644000D1*
Y944000D2*
Y844000D1*
X1694000Y1244000D2*
X1844000D1*
X694000D2*
X844000D1*
X694000Y1144000D2*
X844000D1*
X694000Y1044000D2*
X844000D1*
X2694000Y1244000D2*
X2844000D1*
X3794000Y1294000D2*
X3787749D1*
X3725249Y1356500D1*
Y1487751D1*
X3550249Y1662751D1*
X3225249D1*
X2887701Y1975053D2*
Y1987750D1*
X2831500D1*
X3212750Y1975250D2*
X3237751Y1950249D1*
X3419000D1*
X3794000Y1694000D2*
X3737749D1*
X3700249Y1731500D1*
Y1819197D1*
X944000Y494000D2*
D17*
Y744000D1*
X1344000Y1144000D1*
X1044000Y494000D2*
Y744000D1*
X1344000Y1044000D1*
X1144000Y494000D2*
Y744000D1*
X1344000Y944000D1*
X1244000Y494000D2*
Y744000D1*
X1344000Y844000D1*
X1194000Y2844000D2*
D16*
Y2744000D1*
X1844000Y744000D2*
X1669000Y919000D1*
X1519000Y1469000D2*
Y1544000D1*
X1644000Y1669000D1*
Y2319000D1*
X1244000D2*
Y2794000D1*
X1194000Y2844000D1*
X1294000D2*
Y2744000D1*
X2844000Y744000D2*
X2669000Y919000D1*
X2474000Y1460000D2*
Y1811000D1*
X2448000Y1837000D1*
Y2617000D1*
X1344000D2*
Y2794000D1*
X1294000Y2844000D1*
X2444000Y3326480D2*
X2344000D1*
Y3201283D1*
X2094000Y2844000D2*
Y2744000D1*
Y2844000D2*
X2244000Y2994000D1*
Y3101283D1*
X2344000Y3201283D1*
X2244000Y3326480D2*
X2144000D1*
Y3201283D1*
X1994000Y2844000D2*
Y2744000D1*
Y2844000D2*
Y2944000D1*
X2044000Y2994000D1*
Y3101283D1*
X2144000Y3201283D1*
X1494000Y2844000D2*
Y2744000D1*
X1844000Y644000D2*
X1669000Y819000D1*
X1444000Y1469000D2*
Y1631500D1*
X1544000Y1731500D1*
Y2794000D1*
X1494000Y2844000D1*
X1594000D2*
Y2744000D1*
X2844000Y644000D2*
X2669000Y819000D1*
X2422000Y1460000D2*
X2396000Y1486000D1*
Y2519000D1*
X1644000D2*
Y2794000D1*
X1594000Y2844000D1*
X1394000Y3361717D2*
X1494000D1*
X1694000Y2844000D2*
Y2744000D1*
X1494000Y3361717D2*
Y3144000D1*
X1694000Y2944000D1*
Y2844000D1*
X1844000Y3326480D2*
X1744000D1*
Y3201283D2*
Y3326480D1*
X1794000Y2844000D2*
Y2744000D1*
X1744000Y3201283D2*
X1676283D1*
X1669000Y3194000D1*
Y3019000D1*
X1794000Y2894000D1*
Y2844000D1*
X2044000Y3326480D2*
X1944000D1*
Y3201283D2*
Y3326480D1*
X1894000Y2844000D2*
Y2744000D1*
Y2844000D2*
Y2919000D1*
X1844000Y2969000D1*
Y3101283D1*
X1944000Y3201283D1*
X1294000Y1844000D2*
Y1981500D1*
X2987750Y2025250D2*
Y1975053D1*
X2994000D1*
X2194000Y1844000D2*
Y2175250D1*
X3262750Y2200250D2*
X3487750D1*
X3756500D2*
Y2187750D1*
X3761000Y2192250D1*
Y2669000D1*
X3644000Y2786000D1*
Y3176000D1*
X3574614Y3245386D1*
X3384000D1*
X1394000Y1844000D2*
Y2169000D1*
X3250250Y2137750D2*
Y2144000D1*
X3431500D1*
X3550250Y3287750D2*
X3384943D1*
X3384000Y3288693D1*
X494000Y2844000D2*
D14*
Y2744000D1*
X2682554Y2998480D2*
D18*
X2569480D1*
X2539000Y2968000D1*
Y2448000D1*
X2912750Y3281500D2*
D19*
X2914500D1*
X3033000Y3163000D1*
Y3070024D1*
X3038766Y3064257D1*
X2773000Y2318000D2*
D16*
Y2370000D1*
X2806500Y1837750D2*
Y1875250D1*
X2831500Y1900250D1*
X2887701D1*
X2806500Y1837750D2*
X2744000D1*
X2539000Y2448000D2*
Y1880250D1*
X2544000Y1875250D1*
Y1837750D1*
X1194000Y3361717D2*
X1294000D1*
X794000Y1844000D2*
Y2612751D1*
X744000Y2662751D1*
Y3119000D1*
X1294000D2*
Y3361717D1*
X1594000Y1844000D2*
Y2106500D1*
X3200250Y2087750D2*
X3531500D1*
X3656500Y2212750D1*
Y2637750D1*
X3569000Y2725250D1*
Y3025250D1*
X3525250Y3069000D1*
X3425250D1*
X3422093Y3072157D1*
X3384000D1*
X794000Y3361717D2*
X894000D1*
Y1844000D2*
Y2619000D1*
X944000Y2669000D1*
Y3212749D1*
X894000Y3262749D1*
Y3361717D1*
X3794000Y1094000D2*
X3787751D1*
X3681500Y1200251D1*
Y1444000D1*
X3506500Y1619000D1*
X3194000D1*
X1694000Y1144000D2*
X1844000D1*
X1694000Y1044000D2*
X1844000D1*
X2194000Y2844000D2*
Y2744000D1*
X1844000Y944000D2*
Y844000D1*
X1944000Y3401283D2*
Y3794000D1*
X2344000Y3401283D2*
Y3794000D1*
X794000Y3436520D2*
Y3794000D1*
X2694000Y1044000D2*
X2844000D1*
X2694000Y1144000D2*
X2844000D1*
X1944000Y494000D2*
D17*
Y744000D1*
X2344000Y1144000D1*
Y1044000D2*
X2044000Y744000D1*
Y494000D1*
X2144000D2*
Y744000D1*
X2344000Y944000D1*
X2244000Y494000D2*
Y744000D1*
X2344000Y844000D1*
X1744000Y3401283D2*
D16*
Y3794000D1*
X994000Y3361717D2*
X1094000D1*
Y1844000D2*
Y2650251D1*
X1144000Y2700251D1*
Y3175251D1*
X1094000Y3225251D1*
Y3361717D1*
X3794000Y1494000D2*
X3787749D1*
X3575249Y1706500D1*
X3256500D1*
X2887701Y1937652D2*
X2819098D1*
X2775447Y1981303D1*
X2744000D1*
X2656303D1*
X2594000Y1919000D1*
Y1706500D1*
X994000Y3436520D2*
Y3794000D1*
X2844000Y944000D2*
Y844000D1*
X1494000Y1844000D2*
X1500250D1*
Y2037750D1*
X3256500Y2031500D2*
Y2025250D1*
X3556500D1*
X3700250Y2169000D1*
Y2662750D1*
X3600250Y2762750D1*
Y3131500D1*
X3572978Y3158772D1*
X3384000D1*
X2982643Y2554052D2*
X3017948D1*
X3033000Y2539000D1*
X3068803D1*
X3072000Y2535803D1*
X3344000Y1144000D2*
D17*
X2944000Y744000D1*
Y494000D1*
X3044000D2*
Y744000D1*
X3344000Y1044000D1*
X3144000Y494000D2*
Y744000D1*
X3344000Y944000D1*
X3244000Y494000D2*
Y744000D1*
X3344000Y844000D1*
X794000Y2744000D2*
D16*
Y2844000D1*
X694000Y2744000D2*
Y2844000D1*
X594000Y2744000D2*
Y2844000D1*
X2695000Y2552000D2*
X2767992D1*
X2770045Y2554052D1*
X2144000Y3401283D2*
Y3794000D1*
X2620197Y2461000D2*
Y2552000D1*
X2770045Y2504052D2*
Y2447759D1*
X2773000Y2444803D1*
X2766606D1*
X2691803Y2370000D1*
X1194000Y3436520D2*
Y3794000D1*
X1394000Y3436520D2*
Y3794000D1*
X844000Y1344000D2*
Y1369000D1*
X894000Y1419000D1*
X1844000D1*
X2769000D1*
X2844000Y1344000D1*
X1844000D2*
Y1419000D1*
X894000Y2844000D2*
Y2744000D1*
X844000Y1344000D2*
Y2794000D1*
X894000Y2844000D1*
X3094000Y1317031D2*
D21*
X3117031D1*
X3144000Y1344000D1*
X3344000D1*
X2094000Y1317031D2*
X2117031D1*
X2144000Y1344000D1*
X2344000D1*
X1094000Y1317031D2*
X1167031D1*
X1194000Y1344000D1*
X1344000D1*
X2982643Y2604052D2*
D16*
X3065289D1*
X3072000Y2610764D1*
D22*
Y2617000D1*
X3254000D1*
X3345000Y2526000D1*
Y2420000D1*
X3344000Y2419000D1*
X3012750Y3281500D2*
D16*
X3137750D1*
X3215000Y3204250D1*
Y2838000D1*
X3345000Y2708000D1*
Y2420000D1*
X3344000Y2419000D1*
D48*
X2487000Y2214000D3*
X2813846D3*
X732000Y849000D3*
Y615000D3*
X644000Y1994000D3*
X1044000D3*
X1444000Y2269000D3*
X544000D3*
X3225249Y1662751D3*
X3212750Y1975250D3*
X3419000Y1950249D3*
X1669000Y919000D3*
X1519000Y1469000D3*
X1644000Y2319000D3*
X1244000D3*
X2669000Y919000D3*
X2474000Y1460000D3*
X2448000Y2617000D3*
X1344000D3*
X1669000Y819000D3*
X1444000Y1469000D3*
X2669000Y819000D3*
X2422000Y1460000D3*
X2396000Y2519000D3*
X1644000D3*
X1294000Y1981500D3*
X2987750Y2025250D3*
X2194000Y2175250D3*
X3262750Y2200250D3*
X3487750D3*
X3756500D3*
X1394000Y2169000D3*
X3250250Y2137750D3*
X3431500Y2144000D3*
X3550250Y3287750D3*
X2539000Y2448000D3*
X2544000Y1837750D3*
X744000Y3119000D3*
X1294000D3*
X1594000Y2106500D3*
X3200250Y2087750D3*
X3194000Y1619000D3*
X3256500Y1706500D3*
X2594000D3*
X1500250Y2037750D3*
X3256500Y2031500D3*
X2675250Y1906500D3*
X3700249Y1956500D3*
X3044000Y1937750D3*
X3735000Y3514000D3*
D19*
X2851000Y2617000D3*
D48*
X894000Y3519000D3*
X1094000D3*
X1294000D3*
X1494000D3*
X1844000Y3494000D3*
X2044000D3*
X2244000D3*
X2444000D3*
X1019000Y1094000D3*
Y1044000D3*
X2019000Y1094000D3*
Y1044000D3*
X3019000Y1094000D3*
Y1044000D3*
X1744000Y3019000D3*
X1944000D3*
X2144000D3*
X2344000D3*
D19*
X2877000Y2617000D3*
X2903000D3*
X2851000Y2578000D3*
X2877000D3*
X2903000D3*
X2851000Y2539000D3*
X2877000D3*
X2903000D3*
X3111000Y2968000D3*
Y2929000D3*
D48*
X2773000Y2318000D3*
X2617000Y3085000D3*
X3475000Y3514000D3*
Y2942000D3*
X3735000D3*
X3449000Y3111000D3*
X3169000Y1769000D3*
X2744000Y1762750D3*
X2831500Y1987750D3*
X2744000Y1837750D3*
X2603832Y3104133D2*
D17*
X3092526D1*
X2603832Y3079264D2*
X3092526D1*
X2603832Y3054395D2*
X3092526D1*
X2603832Y3029526D2*
X2900689D1*
X2603832Y3004657D2*
X2880774D1*
X2603832Y2979789D2*
X2860894D1*
X2603832Y2954920D2*
X2841014D1*
X2601314Y3128978D2*
Y2941518D1*
X2832790Y2941524D1*
X2905361Y3032004D1*
X2907749Y3033714D1*
X2910472Y3034819D1*
X2913382Y3035257D1*
X3095030Y3035264D1*
X3095009Y3129017D1*
X2601291Y3129001D1*
X2834710Y2854159D2*
X2948774D1*
X2804891Y2829290D2*
X2948774D1*
X2603832Y2804421D2*
X2948774D1*
X2603832Y2779552D2*
X2925378D1*
X2603832Y2754684D2*
X2911276D1*
X2603832Y2729815D2*
X2911276D1*
X2739331Y2704946D2*
X2911276D1*
X2741304Y2680077D2*
X2785932D1*
X2741304Y2655209D2*
X2768169D1*
X2930251Y2781933D2*
Y2785064D1*
X2933373D1*
X2951270Y2802961D1*
X2951274Y2878993D1*
X2862055Y2879028D1*
X2788945Y2818298D1*
X2786261Y2817100D1*
X2783369Y2816562D1*
X2601293Y2816534D1*
X2601314Y2722781D1*
X2715756Y2722643D1*
X2718584Y2721845D1*
X2721148Y2720409D1*
X2727639Y2714136D1*
X2736412Y2705146D1*
X2737848Y2702581D1*
X2738646Y2699753D1*
X2738799Y2688612D1*
Y2654055D1*
X2769827Y2654054D1*
X2798631Y2694067D1*
X2800924Y2695904D1*
X2803583Y2697156D1*
X2806459Y2697752D1*
X2913794Y2697799D1*
X2913932Y2762247D1*
X2914730Y2765075D1*
X2916165Y2767639D1*
X2923936Y2775626D1*
X2930253Y2781944D1*
X3010039Y2960398D2*
X3123744D1*
X3010039Y2935529D2*
X3123744D1*
X3010039Y2910660D2*
X3123744D1*
X3010039Y2885791D2*
X3123744D1*
X3010039Y2860923D2*
X3123744D1*
X3010039Y2836054D2*
X3123744D1*
X3010039Y2811185D2*
X3123744D1*
X3032395Y2786316D2*
X3123744D1*
X3047503Y2761448D2*
X3123744D1*
X3047503Y2736579D2*
X3123744D1*
X3047503Y2711710D2*
X3123744D1*
X3023497Y2790028D2*
X3029894D1*
Y2782528D1*
X3043175Y2766823D1*
X3044406Y2764154D1*
X3044979Y2761272D1*
X3045017Y2704060D1*
X3126282Y2704049D1*
X3126256Y2985261D1*
X3007528Y2985266D1*
X3007521Y2808693D1*
X3023497Y2790021D1*
X2846837Y2604185D2*
X2905029D1*
X2846335Y2579316D2*
X2905029D1*
X2845867Y2554448D2*
X2905029D1*
X2845402Y2529579D2*
X2905029D1*
X2844899Y2504710D2*
X2905029D1*
X2844433Y2479841D2*
X3031772D1*
X2843966Y2454972D2*
X3083014D1*
X2843463Y2430104D2*
X3083014D1*
X2842997Y2405235D2*
X3083014D1*
X2606018Y2380366D2*
X2617545D1*
X2842530D2*
X3083014D1*
X2606018Y2355497D2*
X2617545D1*
X2842029D2*
X3083014D1*
X2606018Y2330629D2*
X2617545D1*
X2841562D2*
X3083014D1*
X2606018Y2305760D2*
X2623804D1*
X2835030D2*
X3083014D1*
X2606018Y2280891D2*
X2742474D1*
X2803525D2*
X3083014D1*
X3026512Y2483713D2*
X3015972D1*
Y2488987D1*
X3004583Y2491568D1*
X2918073Y2491722D1*
X2915245Y2492520D1*
X2912681Y2493955D1*
X2910524Y2495950D1*
X2908891Y2498394D1*
X2907874Y2501150D1*
X2907529Y2504068D1*
Y2629052D1*
X2844780Y2629054D1*
X2838635Y2314633D1*
X2837837Y2311804D1*
X2836402Y2309240D1*
X2834407Y2307083D1*
X2831963Y2305450D1*
X2829207Y2304433D1*
X2826289Y2304088D1*
X2817353D1*
X2814432Y2296890D1*
X2810619Y2290668D1*
X2805881Y2285119D1*
X2800332Y2280381D1*
X2794110Y2276568D1*
X2787369Y2273776D1*
X2780274Y2272072D1*
X2773000Y2271500D1*
X2765726Y2272072D1*
X2758631Y2273776D1*
X2751890Y2276568D1*
X2745668Y2280381D1*
X2740119Y2285119D1*
X2735381Y2290668D1*
X2731568Y2296890D1*
X2728648Y2304084D1*
X2630604Y2304241D1*
X2627776Y2305039D1*
X2625211Y2306475D1*
X2623054Y2308470D1*
X2621421Y2310913D1*
X2620404Y2313669D1*
X2620059Y2316588D1*
Y2384732D1*
X2603533Y2384039D1*
X2603500Y2265490D1*
X3085520Y2265500D1*
X3085500Y2475446D1*
X3035941Y2479394D1*
X3033176Y2480390D1*
X3026533Y2483711D1*
X2972537Y2722923D2*
X2992513D1*
X2972537Y2698054D2*
X2992513D1*
X2976592Y2673185D2*
X2998757D1*
X2970025Y2747768D2*
X2969871Y2683344D1*
X2969073Y2680516D1*
X2967635Y2677949D1*
X2968978Y2676297D1*
X2974194Y2673100D1*
X2978848Y2669126D1*
X2982822Y2664472D1*
X2986018Y2659256D1*
X2988189Y2654063D1*
X3001262Y2654054D1*
X3001181Y2673961D1*
X2997407Y2677951D1*
X2995971Y2680516D1*
X2995173Y2683344D1*
X2995020Y2692798D1*
Y2747785D1*
X2970021Y2747791D1*
D25*
X1094000Y1069000D3*
Y1317031D3*
D26*
X1844000Y3326480D3*
Y3401283D3*
X2044000Y3326480D3*
Y3401283D3*
X2244000Y3326480D3*
Y3401283D3*
X2444000Y3326480D3*
Y3401283D3*
D25*
X2094000Y1069000D3*
Y1317031D3*
D26*
X894000Y3361717D3*
Y3436520D3*
X1094000Y3361717D3*
Y3436520D3*
X1294000Y3361717D3*
Y3436520D3*
X1494000Y3361717D3*
Y3436520D3*
D25*
X3094000Y1069000D3*
Y1317031D3*
D27*
X2903000Y2734000D3*
X2977803D3*
D28*
X3072000Y2721000D3*
Y2610764D3*
D27*
X2695000Y2552000D3*
X2620197D3*
D28*
X3038766Y2954021D3*
Y3064257D3*
D30*
X2916000Y2838000D3*
X3073480D3*
D31*
X3012750Y3281500D3*
D32*
X2912750D3*
X2812750D3*
X2712750D3*
D31*
X1744000Y3794000D3*
D32*
X1844000D3*
X1944000D3*
X2044000D3*
X2144000D3*
X2244000D3*
X2344000D3*
X2444000D3*
D31*
X944000Y494000D3*
D32*
X1044000D3*
X1144000D3*
X1244000D3*
D31*
X494000Y2844000D3*
D32*
X594000D3*
X694000D3*
X794000D3*
X894000D3*
X994000D3*
X1094000D3*
X1194000D3*
X1294000D3*
X1394000D3*
X1494000D3*
X1594000D3*
X1694000D3*
X1794000D3*
X1894000D3*
X1994000D3*
X2094000D3*
X2194000D3*
X2294000D3*
D31*
X1944000Y494000D3*
D32*
X2044000D3*
X2144000D3*
X2244000D3*
D31*
X3794000Y1694000D3*
D32*
Y1594000D3*
Y1494000D3*
Y1394000D3*
Y1294000D3*
Y1194000D3*
Y1094000D3*
Y994000D3*
D31*
X2944000Y494000D3*
D32*
X3044000D3*
X3144000D3*
X3244000D3*
D31*
X794000Y3794000D3*
D32*
X894000D3*
X994000D3*
X1094000D3*
X1194000D3*
X1294000D3*
X1394000D3*
X1494000D3*
D33*
X3344000Y2419000D3*
X3580220D3*
D34*
X3462110Y2604039D3*
D35*
X3384000Y3332000D3*
Y3288693D3*
Y3245386D3*
Y3202079D3*
Y3158772D3*
Y3115465D3*
Y3072157D3*
Y3028850D3*
Y2985543D3*
D36*
X3799354Y3520189D3*
D37*
X3417465D3*
D38*
Y2942236D3*
D36*
X3799354D3*
D31*
X594000Y1244000D3*
D32*
X694000D3*
X594000Y1144000D3*
X694000D3*
X594000Y1044000D3*
X694000D3*
D31*
X1594000Y1244000D3*
D32*
X1694000D3*
X1594000Y1144000D3*
X1694000D3*
X1594000Y1044000D3*
X1694000D3*
D31*
X2594000Y1244000D3*
D32*
X2694000D3*
X2594000Y1144000D3*
X2694000D3*
X2594000Y1044000D3*
X2694000D3*
D39*
X2682554Y2760291D3*
Y2998480D3*
D40*
X544000Y544000D3*
X3744000D3*
Y3744000D3*
X544000D3*
D26*
X1744000Y3201283D3*
Y3126480D3*
X1944000Y3201283D3*
Y3126480D3*
X2144000Y3201283D3*
Y3126480D3*
X2344000Y3201283D3*
Y3126480D3*
X3072000Y2461000D3*
Y2535803D3*
X1744000Y3401283D3*
Y3326480D3*
X1944000Y3401283D3*
Y3326480D3*
X2144000Y3401283D3*
Y3326480D3*
X2344000Y3401283D3*
Y3326480D3*
X794000Y3436520D3*
Y3361717D3*
X994000Y3436520D3*
Y3361717D3*
X1194000Y3436520D3*
Y3361717D3*
X1394000Y3436520D3*
Y3361717D3*
D27*
X2695000Y2461000D3*
X2620197D3*
X2617000Y2370000D3*
X2691803D3*
D26*
X2773000D3*
Y2444803D3*
D20*
X494000Y2744000D3*
X594000D3*
X694000D3*
X794000D3*
X894000D3*
X994000D3*
X1094000D3*
X1194000D3*
X1294000D3*
X1394000D3*
X1494000D3*
X1594000D3*
X1694000D3*
X1794000D3*
X1894000D3*
X1994000D3*
X2094000D3*
X2194000D3*
X2294000D3*
X494000Y1844000D3*
X594000D3*
X694000D3*
X794000D3*
X894000D3*
X994000D3*
X1094000D3*
X1194000D3*
X1294000D3*
X1394000D3*
X1494000D3*
X1594000D3*
X1694000D3*
X1794000D3*
X1894000D3*
X1994000D3*
X2094000D3*
X2194000D3*
X2294000D3*
D41*
X844000Y1344000D3*
D42*
Y1244000D3*
Y1144000D3*
Y1044000D3*
Y944000D3*
Y844000D3*
Y744000D3*
Y644000D3*
X1344000D3*
Y744000D3*
Y844000D3*
Y944000D3*
Y1044000D3*
Y1144000D3*
Y1244000D3*
Y1344000D3*
D41*
X1844000D3*
D42*
Y1244000D3*
Y1144000D3*
Y1044000D3*
Y944000D3*
Y844000D3*
Y744000D3*
Y644000D3*
X2344000D3*
Y744000D3*
Y844000D3*
Y944000D3*
Y1044000D3*
Y1144000D3*
Y1244000D3*
Y1344000D3*
D41*
X2844000D3*
D42*
Y1244000D3*
Y1144000D3*
Y1044000D3*
Y944000D3*
Y844000D3*
Y744000D3*
Y644000D3*
X3344000D3*
Y744000D3*
Y844000D3*
Y944000D3*
Y1044000D3*
Y1144000D3*
Y1244000D3*
Y1344000D3*
D44*
X2770045Y2654052D3*
Y2604052D3*
Y2554052D3*
Y2504052D3*
X2982643D3*
Y2554052D3*
Y2604052D3*
Y2654052D3*
D45*
X2876344Y2579052D3*
D47*
X2994000Y1900250D3*
Y1937652D3*
Y1975053D3*
X2887701D3*
Y1937652D3*
Y1900250D3*
D26*
X2806500Y1837750D3*
Y1762947D3*
X3106500Y1844000D3*
Y1769197D3*
X2744000Y1906500D3*
Y1981303D3*
X3700249Y1894000D3*
Y1819197D3*
M02*
