G04 DipTrace 3.3.1.3*
G04 BottomMask.gbr*
%MOIN*%
G04 #@! TF.FileFunction,Soldermask,Bot*
G04 #@! TF.Part,Single*
%ADD52C,0.03937*%
%ADD65C,0.067*%
%ADD67R,0.067X0.067*%
%ADD69C,0.068*%
%ADD71C,0.208*%
%ADD83O,0.12611X0.08674*%
%ADD85O,0.08674X0.12611*%
%ADD87C,0.067055*%
%ADD89R,0.067055X0.067055*%
%FSLAX26Y26*%
G04*
G70*
G90*
G75*
G01*
G04 BotMask*
%LPD*%
D89*
X3056201Y3281200D3*
D87*
X2956201D3*
X2856201D3*
X2756201D3*
D89*
X1743700Y3793700D3*
D87*
X1843700D3*
X1943700D3*
X2043700D3*
X2143700D3*
X2243700D3*
X2343700D3*
X2443700D3*
D89*
X943700Y493700D3*
D87*
X1043700D3*
X1143700D3*
X1243700D3*
D89*
X493700Y2843700D3*
D87*
X593700D3*
X693700D3*
X793700D3*
X893700D3*
X993700D3*
X1093700D3*
X1193700D3*
X1293700D3*
X1393700D3*
X1493700D3*
X1593700D3*
X1693700D3*
X1793700D3*
X1893700D3*
X1993700D3*
X2093700D3*
X2193700D3*
X2293700D3*
D89*
X1943700Y493700D3*
D87*
X2043700D3*
X2143700D3*
X2243700D3*
D89*
X793700Y3793700D3*
D87*
X893700D3*
X993700D3*
X1093700D3*
X1193700D3*
X1293700D3*
X1393700D3*
X1493700D3*
D89*
X2943700Y493700D3*
D87*
X3043700D3*
X3143700D3*
X3243700D3*
D89*
X3793700Y1693700D3*
D87*
Y1593700D3*
Y1493700D3*
Y1393700D3*
Y1293700D3*
Y1193700D3*
Y1093700D3*
Y993700D3*
D85*
X3343700Y2418700D3*
X3579920D3*
D83*
X3461810Y2603739D3*
D52*
X3814802Y3052566D3*
Y3367527D3*
D89*
X593700Y1243700D3*
D87*
X693700D3*
X593700Y1143700D3*
X693700D3*
X593700Y1043700D3*
X693700D3*
D89*
X1593700Y1243700D3*
D87*
X1693700D3*
X1593700Y1143700D3*
X1693700D3*
X1593700Y1043700D3*
X1693700D3*
D89*
X2593700Y1243700D3*
D87*
X2693700D3*
X2593700Y1143700D3*
X2693700D3*
X2593700Y1043700D3*
X2693700D3*
D71*
X543700Y543700D3*
X3743700D3*
Y3743700D3*
X543700D3*
D69*
X493700Y2743700D3*
X593700D3*
X693700D3*
X793700D3*
X893700D3*
X993700D3*
X1093700D3*
X1193700D3*
X1293700D3*
X1393700D3*
X1493700D3*
X1593700D3*
X1693700D3*
X1793700D3*
X1893700D3*
X1993700D3*
X2093700D3*
X2193700D3*
X2293700D3*
X493700Y1843700D3*
X593700D3*
X693700D3*
X793700D3*
X893700D3*
X993700D3*
X1093700D3*
X1193700D3*
X1293700D3*
X1393700D3*
X1493700D3*
X1593700D3*
X1693700D3*
X1793700D3*
X1893700D3*
X1993700D3*
X2093700D3*
X2193700D3*
X2293700D3*
D67*
X843700Y1343700D3*
D65*
Y1243700D3*
Y1143700D3*
Y1043700D3*
Y943700D3*
Y843700D3*
Y743700D3*
Y643700D3*
X1343700D3*
Y743700D3*
Y843700D3*
Y943700D3*
Y1043700D3*
Y1143700D3*
Y1243700D3*
Y1343700D3*
D67*
X1843700D3*
D65*
Y1243700D3*
Y1143700D3*
Y1043700D3*
Y943700D3*
Y843700D3*
Y743700D3*
Y643700D3*
X2343700D3*
Y743700D3*
Y843700D3*
Y943700D3*
Y1043700D3*
Y1143700D3*
Y1243700D3*
Y1343700D3*
D67*
X2843700D3*
D65*
Y1243700D3*
Y1143700D3*
Y1043700D3*
Y943700D3*
Y843700D3*
Y743700D3*
Y643700D3*
X3343700D3*
Y743700D3*
Y843700D3*
Y943700D3*
Y1043700D3*
Y1143700D3*
Y1243700D3*
Y1343700D3*
M02*
