M48
INCH
T01C0.013
T02C0.0191
T03C0.035
T04C0.0354
T05C0.0394
T06C0.14
%
T01
X+029499Y+026187
X+029267Y+026167
X+029027Y+026167
X+029007Y+025777
X+029267Y+025777
X+029527Y+025777
X+029527Y+025387
X+029267Y+025387
X+029007Y+025387
X+031607Y+029287
X+031607Y+029677
T02
X+026749Y+019062
X+027437Y+018375
X+027437Y+017624
X+027437Y+019810
X+027437Y+020312
X+028875Y+020312
X+029937Y+020874
X+030437Y+019375
X+031687Y+017687
X+031062Y+022062
X+028227Y+023177
X+025874Y+024187
X+024375Y+025125
X+024875Y+025750
X+024437Y+026687
X+025437Y+027448
X+023437Y+030187
X+024437Y+031562
X+024062Y+031937
X+026667Y+030847
X+024437Y+034937
X+022437Y+034937
X+020437Y+034937
X+018437Y+034937
X+014937Y+035187
X+012937Y+035187
X+010937Y+035187
X+008937Y+035187
X+012750Y+026687
X+013437Y+025750
X+016437Y+025125
X+014937Y+023000
X+015937Y+022375
X+015375Y+021687
X+012937Y+021937
X+011937Y+022999
X+010937Y+020375
X+010437Y+019937
X+009375Y+020375
X+008999Y+020874
X+007437Y+021937
X+006437Y+019937
X+005437Y+022999
X+009562Y+015999
X+014437Y+014687
X+014937Y+014687
X+013437Y+019437
X+017937Y+021312
X+022750Y+023000
X+023250Y+022375
X+025437Y+022062
X+023750Y+019625
X+024375Y+014625
X+024875Y+014624
X+026687Y+009187
X+026687Y+008187
X+030187Y+010437
X+030187Y+010937
X+020187Y+010937
X+020187Y+010437
X+010187Y+010437
X+010187Y+010937
X+007312Y+008492
X+007312Y+005562
X+017437Y+030187
X+019437Y+030187
X+021437Y+030187
X+032844Y+030719
X+032874Y+031562
X+032875Y+032062
X+034487Y+031107
X+034747Y+029417
X+037347Y+029417
X+037347Y+035137
X+034747Y+035137
X+034437Y+022062
X+035312Y+021687
X+036124Y+021312
X+037062Y+020874
T03
X+004937Y+027437
X+005937Y+027437
X+006937Y+027437
X+007937Y+027437
X+008937Y+027437
X+009937Y+027437
X+010937Y+027437
X+011937Y+027437
X+012937Y+027437
X+013937Y+027437
X+014937Y+027437
X+015937Y+027437
X+016937Y+027437
X+017937Y+027437
X+018937Y+027437
X+019937Y+027437
X+020937Y+027437
X+021937Y+027437
X+022937Y+027437
X+022937Y+018437
X+021937Y+018437
X+020937Y+018437
X+019937Y+018437
X+018937Y+018437
X+017937Y+018437
X+016937Y+018437
X+015937Y+018437
X+014937Y+018437
X+013937Y+018437
X+012937Y+018437
X+011937Y+018437
X+010937Y+018437
X+009937Y+018437
X+008937Y+018437
X+007937Y+018437
X+006937Y+018437
X+005937Y+018437
X+004937Y+018437
X+008437Y+013437
X+008437Y+012437
X+008437Y+011437
X+008437Y+010437
X+008437Y+009437
X+008437Y+008437
X+008437Y+007437
X+008437Y+006437
X+013437Y+006437
X+013437Y+007437
X+013437Y+008437
X+013437Y+009437
X+013437Y+010437
X+013437Y+011437
X+013437Y+012437
X+013437Y+013437
X+018437Y+013437
X+018437Y+012437
X+018437Y+011437
X+018437Y+010437
X+018437Y+009437
X+018437Y+008437
X+018437Y+007437
X+018437Y+006437
X+023437Y+006437
X+023437Y+007437
X+023437Y+008437
X+023437Y+009437
X+023437Y+010437
X+023437Y+011437
X+023437Y+012437
X+023437Y+013437
X+028437Y+013437
X+028437Y+012437
X+028437Y+011437
X+028437Y+010437
X+028437Y+009437
X+028437Y+008437
X+028437Y+007437
X+028437Y+006437
X+033437Y+006437
X+033437Y+007437
X+033437Y+008437
X+033437Y+009437
X+033437Y+010437
X+033437Y+011437
X+033437Y+012437
X+033437Y+013437
T04
X+030562Y+032812
X+029562Y+032812
X+028562Y+032812
X+027562Y+032812
X+024437Y+037937
X+023437Y+037937
X+022437Y+037937
X+021437Y+037937
X+020437Y+037937
X+019437Y+037937
X+018437Y+037937
X+017437Y+037937
X+014937Y+037937
X+013937Y+037937
X+012937Y+037937
X+011937Y+037937
X+010937Y+037937
X+009937Y+037937
X+008937Y+037937
X+007937Y+037937
X+007937Y+028437
X+008937Y+028437
X+009937Y+028437
X+010937Y+028437
X+011937Y+028437
X+012937Y+028437
X+013937Y+028437
X+014937Y+028437
X+015937Y+028437
X+016937Y+028437
X+017937Y+028437
X+018937Y+028437
X+019937Y+028437
X+020937Y+028437
X+021937Y+028437
X+022937Y+028437
X+006937Y+028437
X+005937Y+028437
X+004937Y+028437
X+005937Y+012437
X+006937Y+012437
X+006937Y+011437
X+005937Y+011437
X+005937Y+010437
X+006937Y+010437
X+009437Y+004937
X+010437Y+004937
X+011437Y+004937
X+012437Y+004937
X+015937Y+010437
X+015937Y+011437
X+015937Y+012437
X+016937Y+012437
X+016937Y+011437
X+016937Y+010437
X+019437Y+004937
X+020437Y+004937
X+021437Y+004937
X+022437Y+004937
X+025937Y+010437
X+025937Y+011437
X+025937Y+012437
X+026937Y+012437
X+026937Y+011437
X+026937Y+010437
X+029437Y+004937
X+030437Y+004937
X+031437Y+004937
X+032437Y+004937
X+037937Y+009937
X+037937Y+010937
X+037937Y+011937
X+037937Y+012937
X+037937Y+013937
X+037937Y+014937
X+037937Y+015937
X+037937Y+016937
T05
X+033437Y+023990G85X+033437Y+024384
X+034815Y+026037G85X+034421Y+026037
X+035799Y+023990G85X+035799Y+024384
X+038148Y+030526
X+038148Y+033675
T06
X+005437Y+005437
X+037437Y+005437
X+037437Y+037437
X+005437Y+037437
T00
M30
