G04 DipTrace 3.3.1.3*
G04 Top.gbr*
%MOIN*%
G04 #@! TF.FileFunction,Copper,L1,Top*
G04 #@! TF.Part,Single*
G04 #@! TA.AperFunction,Conductor*
%ADD14C,0.016*%
%ADD15C,0.012*%
%ADD16C,0.02*%
G04 #@! TA.AperFunction,CopperBalancing*
%ADD17C,0.025*%
G04 #@! TA.AperFunction,ViaPad*
%ADD18C,0.03*%
G04 #@! TA.AperFunction,Conductor*
%ADD19C,0.032*%
G04 #@! TA.AperFunction,ComponentPad*
%ADD20C,0.06*%
G04 #@! TA.AperFunction,Conductor*
%ADD21C,0.035*%
%ADD22C,0.05*%
%ADD23C,0.059*%
%ADD26R,0.062992X0.163386*%
%ADD27R,0.059055X0.051181*%
%ADD28R,0.051181X0.059055*%
%ADD29R,0.070866X0.062992*%
%ADD31R,0.098425X0.066929*%
G04 #@! TA.AperFunction,ComponentPad*
%ADD32R,0.059055X0.059055*%
%ADD33C,0.059055*%
%ADD34O,0.07874X0.11811*%
%ADD35O,0.11811X0.07874*%
%ADD36R,0.051181X0.027559*%
%ADD37R,0.07874X0.047244*%
%ADD38R,0.055118X0.047244*%
%ADD39R,0.055118X0.031496*%
%ADD40R,0.137795X0.09252*%
G04 #@! TA.AperFunction,ComponentPad*
%ADD41C,0.2*%
%ADD42R,0.059X0.059*%
%ADD43C,0.059*%
%ADD45R,0.062992X0.024016*%
%ADD46R,0.10315X0.138189*%
%ADD48R,0.043307X0.023622*%
G04 #@! TA.AperFunction,ViaPad*
%ADD49C,0.04*%
%FSLAX26Y26*%
G04*
G70*
G90*
G75*
G01*
G04 Top*
%LPD*%
X2593700Y1243700D2*
D14*
Y1143700D1*
Y1043700D1*
X1593700Y1243700D2*
Y1143700D1*
Y1043700D1*
X2593700D2*
Y743700D1*
Y443700D1*
X1593700D1*
Y743700D1*
Y1043700D1*
X1743700Y3126180D2*
Y3018700D1*
X1943700Y3126180D2*
Y3018700D1*
X2143700Y3126180D2*
Y3018700D1*
X2343700Y3126180D2*
Y3018700D1*
X2293700Y2843700D2*
Y2918700D1*
X2343700Y2968700D1*
Y3018700D1*
Y743700D2*
D15*
X2593700D1*
X1343700D2*
X1593700D1*
X2856201Y3281200D2*
Y3243701D1*
X2814200Y3201700D1*
X2653700D1*
X2543700Y3091700D1*
Y2744810D1*
Y2206200D1*
X3443700D2*
Y743700D1*
Y556200D1*
X3331200Y443700D1*
X2593700D1*
X3343700Y743700D2*
X3443700D1*
X593700Y1243700D2*
Y1143700D1*
Y1043700D1*
Y986700D1*
X731200Y849200D1*
Y556200D2*
Y472200D1*
X759700Y443700D1*
X1593700D1*
X3106200Y1843700D2*
Y1881199D1*
X3087449Y1899949D1*
X2993700D1*
X3106200Y1881199D2*
Y2206200D1*
X2293700Y2743700D2*
D16*
Y2843700D1*
X3287451Y3206200D2*
D15*
X3283029Y3201779D1*
X3383700D1*
X893700Y3436220D2*
Y3518700D1*
X1093700Y3436220D2*
Y3518700D1*
X1293700Y3436220D2*
Y3518700D1*
X1493700Y3436220D2*
Y3518700D1*
X1843700Y3400983D2*
Y3493700D1*
X2043700Y3400983D2*
Y3493700D1*
X2243700Y3400983D2*
Y3493700D1*
X2443700Y3400983D2*
Y3493700D1*
X3018700Y1093700D2*
X3068700D1*
X3093700Y1068700D1*
X3018700Y1043700D2*
X3068700D1*
X3093700Y1068700D1*
X2018700Y1093700D2*
X2068700D1*
X2093700Y1068700D1*
X2043700Y1043700D2*
X2068700D1*
X2093700Y1068700D1*
X2018700Y1043700D2*
X2068700D1*
X1018700Y1093700D2*
X1068700D1*
X1093700Y1068700D1*
X1018700Y1043700D2*
X1068700D1*
X1093700Y1068700D1*
X2666700Y2369700D2*
Y2382700D1*
X2744700Y2460700D1*
X3474700Y3513700D2*
X3423354D1*
X3417165Y3519889D1*
X3734700Y3513700D2*
X3792865D1*
X3799054Y3519889D1*
X3474700Y2941700D2*
X3417401D1*
X3417165Y2941936D1*
X3734700Y2941700D2*
X3798818D1*
X3799054Y2941936D1*
X3448700Y3110700D2*
X3388165D1*
X3383700Y3115165D1*
X3106200Y1768897D2*
X3168503D1*
X3168700Y1768700D1*
X2806200Y1762646D2*
X2743897D1*
X2743700Y1762449D1*
X2993700Y1937351D2*
X3043600D1*
X3043700Y1937451D1*
X2743700Y1906200D2*
X2674949D1*
X893700Y1599951D2*
X956200Y1599949D1*
X843700Y743700D2*
X618700D1*
X518700Y843700D1*
Y1606200D1*
X643700Y1731200D1*
Y1993700D1*
X1043700D2*
Y2793700D1*
X1093700Y2843700D1*
Y2743700D2*
D16*
Y2843700D1*
X1193700Y2743700D2*
Y2843700D1*
X843700Y643700D2*
D15*
X812451Y674949D1*
X612451D1*
X474949Y812451D1*
Y1687449D1*
X543700Y1756200D1*
Y2299949D1*
X1193700D2*
Y2743700D1*
X843700Y943700D2*
Y843700D1*
X1693700Y1243700D2*
X1843700D1*
X693700D2*
X843700D1*
X693700Y1143700D2*
X843700D1*
X693700Y1043700D2*
X843700D1*
X2693700Y1243700D2*
X2843700D1*
X3793700Y1293700D2*
X3724949D1*
X3612449Y1406200D1*
Y2131200D1*
X1793700D2*
Y1843700D1*
X2887401Y1974752D2*
X2887451Y2031200D1*
X943700Y493700D2*
D17*
Y743700D1*
X1343700Y1143700D1*
X1043700Y493700D2*
Y743700D1*
X1343700Y1043700D1*
X1143700Y493700D2*
Y743700D1*
X1343700Y943700D1*
X1243700Y493700D2*
Y743700D1*
X1343700Y843700D1*
X1393700Y2743700D2*
D16*
Y2843700D1*
X1493700Y1468700D2*
D15*
Y1631200D1*
X1443700Y1681200D1*
Y2493700D1*
X1393700Y2543700D1*
Y2743700D1*
X2843700Y743700D2*
X2668700Y918700D1*
X2487450Y1462449D2*
Y2574950D1*
X1343700D2*
Y2793700D1*
X1293700Y2843700D1*
Y2743700D2*
D16*
Y2843700D1*
X2443700Y3326180D2*
D15*
X2343700D1*
Y3200983D1*
X2093700Y2843700D2*
X2243700Y2993700D1*
Y3100983D1*
X2343700Y3200983D1*
X2093700Y2743700D2*
D16*
Y2843700D1*
X2243700Y3326180D2*
D15*
X2143700D1*
Y3200983D1*
X1993700Y2843700D2*
Y2943700D1*
X2043700Y2993700D1*
Y3100983D1*
X2143700Y3200983D1*
X1993700Y2743700D2*
D16*
Y2843700D1*
X1443700Y1468700D2*
D15*
Y1568700D1*
X1343700Y1668700D1*
Y1943700D1*
X2843700Y643700D2*
X2668700Y818700D1*
X2437451Y1462451D2*
Y2512451D1*
X1643700D2*
Y2793700D1*
X1593700Y2843700D1*
Y2743700D2*
D16*
Y2843700D1*
X1393700Y3361417D2*
D15*
X1493700D1*
Y3143700D1*
X1693700Y2943700D1*
Y2843700D1*
Y2743700D2*
D16*
Y2843700D1*
X1843700Y3326180D2*
D15*
X1743700D1*
Y3200983D2*
Y3326180D1*
Y3200983D2*
X1675983D1*
X1668700Y3193700D1*
Y3018700D1*
X1793700Y2893700D1*
Y2843700D1*
Y2743700D2*
D16*
Y2843700D1*
X2043700Y3326180D2*
D15*
X1943700D1*
Y3200983D2*
Y3326180D1*
X1893700Y2843700D2*
Y2918700D1*
X1843700Y2968700D1*
Y3100983D1*
X1943700Y3200983D1*
X1893700Y2743700D2*
D16*
Y2843700D1*
X893700Y1674754D2*
D15*
Y1843700D1*
Y2093699D1*
X899949Y2087449D1*
X2993700D2*
Y1974752D1*
X3706200Y2087449D2*
Y1681200D1*
X3793700Y1593700D1*
X3383700Y3245086D2*
X3311064D1*
X3187450Y3368700D1*
X2756200D1*
X2506200Y3118700D1*
Y2668700D1*
X2374950Y2537450D1*
Y1962450D1*
X3383700Y3288393D2*
X3324007D1*
X3218700Y3393700D1*
X2731200D1*
X2474950Y3137450D1*
Y2899950D1*
X2443700Y2868700D1*
Y2668700D1*
X1274951D2*
Y2537449D1*
X1393700Y2418700D1*
Y1843700D1*
X2956201Y3281200D2*
D18*
X3082700Y3154701D1*
Y3069724D1*
X3088466Y3063957D1*
X2822700Y2317700D2*
D15*
Y2369700D1*
X2806200Y1837449D2*
Y1874949D1*
X2831200Y1899949D1*
X2887401D1*
X2806200Y1837449D2*
X2743700D1*
Y1837451D1*
X2732254Y2998180D2*
D19*
X2619180D1*
X2588700Y2967700D1*
Y2426200D1*
D15*
X2587449Y2424949D1*
Y2418700D1*
Y1906201D1*
X2656200Y1837451D1*
X2743700D1*
X493700Y2743700D2*
D16*
Y2843700D1*
X1193700Y3361417D2*
D15*
X1293700D1*
X1193700D2*
Y3274949D1*
X1143700Y3224949D1*
Y2218700D1*
X1193700Y2168700D1*
Y1843700D1*
X3383700Y3071857D2*
X3284357D1*
X2443700Y3156200D2*
Y2937450D1*
X2399950Y2893700D1*
Y2624950D1*
X2324950Y2549950D1*
Y2237450D1*
X1593700D2*
Y1843700D1*
X793700Y3361417D2*
X893700D1*
X793700D2*
Y3306200D1*
X743700Y3256200D1*
Y2193700D1*
X1293700D2*
Y1843700D1*
X3383700Y3158472D2*
X3289721D1*
X3287449Y3156200D1*
X2406200Y3193700D2*
Y2949950D1*
X2362449Y2906199D1*
Y2631199D1*
X2274950Y2543700D1*
Y2299951D1*
X1493700D2*
Y1843700D1*
Y2743700D2*
D16*
Y2843700D1*
X3793700Y1093700D2*
D15*
Y1099951D1*
X3531200Y1362451D1*
Y2168700D1*
X1537451D2*
Y2581200D1*
X1493700Y2624951D1*
Y2743700D1*
X1693700Y1143700D2*
X1843700D1*
X1693700Y1043700D2*
X1843700D1*
Y943700D2*
Y843700D1*
X1943700Y3400983D2*
Y3793700D1*
X2343700Y3400983D2*
Y3793700D1*
X793700Y3436220D2*
Y3793700D1*
X2693700Y1043700D2*
X2843700D1*
X2693700Y1143700D2*
X2843700D1*
X1943700Y493700D2*
D17*
Y743700D1*
X2343700Y1143700D1*
Y1043700D2*
X2043700Y743700D1*
Y493700D1*
X2143700D2*
Y743700D1*
X2343700Y943700D1*
X2243700Y493700D2*
Y743700D1*
X2343700Y843700D1*
X1743700Y3400983D2*
D15*
Y3793700D1*
X993700Y3361417D2*
X1093700D1*
X993700D2*
Y3287449D1*
X937451Y3231200D1*
Y2037451D1*
X1093700D2*
Y1843700D1*
X2887401Y1937351D2*
X2818798D1*
X2775146Y1981003D1*
X2743700D1*
Y2031200D2*
Y1981003D1*
X993700Y3436220D2*
Y3793700D1*
X2193700Y2743700D2*
D16*
Y2843700D1*
X2843700Y943700D2*
D15*
Y843700D1*
X3032343Y2553752D2*
X3067648D1*
X3082700Y2538700D1*
X3118503D1*
X3121700Y2535503D1*
X3343700Y1143700D2*
D17*
X2943700Y743700D1*
Y493700D1*
X3043700D2*
Y743700D1*
X3343700Y1043700D1*
X3143700Y493700D2*
Y743700D1*
X3343700Y943700D1*
X3243700Y493700D2*
Y743700D1*
X3343700Y843700D1*
X2744700Y2551700D2*
D15*
X2817692D1*
X2819745Y2553752D1*
X2143700Y3400983D2*
Y3793700D1*
X2669897Y2460700D2*
Y2551700D1*
X2819745Y2503752D2*
Y2447459D1*
X2822700Y2444503D1*
X2816306D1*
X2741503Y2369700D1*
X1193700Y3436220D2*
Y3793700D1*
X1393700Y3436220D2*
Y3793700D1*
X793700Y2743700D2*
D16*
Y2843700D1*
X693700Y2743700D2*
Y2843700D1*
X593700Y2743700D2*
Y2843700D1*
X843700Y1343700D2*
D15*
Y1368700D1*
X893700Y1418700D1*
X1843700D1*
X2768700D1*
X2843700Y1343700D1*
X1843700D2*
Y1418700D1*
X843700Y1343700D2*
Y2793700D1*
X893700Y2843700D1*
Y2743700D2*
D16*
Y2843700D1*
X3093700Y1316731D2*
D21*
X3116731D1*
X3143700Y1343700D1*
X3343700D1*
X2093700Y1316731D2*
X2116731D1*
X2143700Y1343700D1*
X2343700D1*
X1093700Y1316731D2*
X1166731D1*
X1193700Y1343700D1*
X1343700D1*
X3032343Y2603752D2*
D15*
X3114989D1*
X3121700Y2610464D1*
D22*
Y2616700D1*
X3253700D1*
X3344700Y2525700D1*
Y2419700D1*
X3343700Y2418700D1*
X3056201Y3281200D2*
D15*
X3156201D1*
X3233451Y3203951D1*
Y2837699D1*
X3344700Y2726449D1*
Y2419700D1*
X3343700Y2418700D1*
D20*
Y1403200D1*
D23*
Y1343700D1*
D49*
X2543700Y2206200D3*
X3443700D3*
X731200Y849200D3*
Y556200D3*
X3106200Y2206200D3*
X3287451Y3206200D3*
X2543700Y2744810D3*
X643700Y1993700D3*
X1043700D3*
X543700Y2299949D3*
X1193700D3*
X3612449Y2131200D3*
X1793700D3*
X1493700Y1468700D3*
X2668700Y918700D3*
X2487450Y1462449D3*
Y2574950D3*
X1343700D3*
X1443700Y1468700D3*
X1343700Y1943700D3*
X2668700Y818700D3*
X2437451Y1462451D3*
Y2512451D3*
X1643700D3*
X899949Y2087449D3*
X2993700D3*
X3706200D3*
X2374950Y1962450D3*
X2443700Y2668700D3*
X1274951D3*
X2587449Y2418700D3*
X3284357Y3071857D3*
X2443700Y3156200D3*
X2324950Y2237450D3*
X1593700D3*
X743700Y2193700D3*
X1293700D3*
X3287449Y3156200D3*
X2406200Y3193700D3*
X2274950Y2299951D3*
X1493700D3*
X3531200Y2168700D3*
X1537451D3*
X937451Y2037451D3*
X1093700D3*
X2743700Y1981003D3*
Y2031200D3*
X2674949Y1906200D3*
X956200Y1599949D3*
X3043700Y1937451D3*
X3734700Y3513700D3*
D18*
X2949949Y2618700D3*
D49*
X893700Y3518700D3*
X1093700D3*
X1293700D3*
X1493700D3*
X1843700Y3493700D3*
X2043700D3*
X2243700D3*
X2443700D3*
X1018700Y1093700D3*
Y1043700D3*
X2018700Y1093700D3*
Y1043700D3*
X3018700Y1093700D3*
Y1043700D3*
X1743700Y3018700D3*
X1943700D3*
X2143700D3*
X2343700D3*
D18*
X2926700Y2616700D3*
X2902700D3*
X2900700Y2577700D3*
X2926700D3*
X2952700D3*
X2900700Y2538700D3*
X2926700D3*
X2952700D3*
X3160700Y2967700D3*
Y2928700D3*
D49*
X2822700Y2317700D3*
X2666700Y3084700D3*
X3474700Y3513700D3*
Y2941700D3*
X3734700D3*
X3448700Y3110700D3*
X3168700Y1768700D3*
X2743700Y1762449D3*
X2887451Y2031200D3*
X2743700Y1837451D3*
X2653532Y3103833D2*
D17*
X3142226D1*
X2653532Y3078964D2*
X3142226D1*
X2653532Y3054095D2*
X3142226D1*
X2653532Y3029226D2*
X2950389D1*
X2653532Y3004357D2*
X2930474D1*
X2653532Y2979489D2*
X2910594D1*
X2653532Y2954620D2*
X2890714D1*
X2651014Y3128678D2*
Y2941218D1*
X2882490Y2941224D1*
X2955061Y3031704D1*
X2957449Y3033414D1*
X2960172Y3034519D1*
X2963082Y3034957D1*
X3144730Y3034964D1*
X3144709Y3128717D1*
X2650991Y3128701D1*
X2884410Y2853859D2*
X2998474D1*
X2854591Y2828990D2*
X2998474D1*
X2653532Y2804121D2*
X2998474D1*
X2653532Y2779252D2*
X2975078D1*
X2653532Y2754384D2*
X2960976D1*
X2653532Y2729515D2*
X2960976D1*
X2789031Y2704646D2*
X2960976D1*
X2791004Y2679777D2*
X2835632D1*
X2791004Y2654909D2*
X2817869D1*
X2979951Y2781633D2*
Y2784764D1*
X2983073D1*
X3000970Y2802661D1*
X3000974Y2878693D1*
X2911755Y2878728D1*
X2838645Y2817998D1*
X2835961Y2816800D1*
X2833069Y2816262D1*
X2650993Y2816234D1*
X2651014Y2722481D1*
X2765456Y2722343D1*
X2768284Y2721545D1*
X2770848Y2720109D1*
X2777339Y2713836D1*
X2786112Y2704846D1*
X2787548Y2702281D1*
X2788346Y2699453D1*
X2788499Y2688312D1*
Y2653755D1*
X2819527Y2653754D1*
X2848331Y2693767D1*
X2850624Y2695604D1*
X2853283Y2696856D1*
X2856159Y2697452D1*
X2963494Y2697499D1*
X2963632Y2761947D1*
X2964430Y2764775D1*
X2965865Y2767339D1*
X2973636Y2775326D1*
X2979953Y2781644D1*
X3059739Y2960098D2*
X3173444D1*
X3059739Y2935229D2*
X3173444D1*
X3059739Y2910360D2*
X3173444D1*
X3059739Y2885491D2*
X3173444D1*
X3059739Y2860623D2*
X3173444D1*
X3059739Y2835754D2*
X3173444D1*
X3059739Y2810885D2*
X3173444D1*
X3082095Y2786016D2*
X3173444D1*
X3097203Y2761148D2*
X3173444D1*
X3097203Y2736279D2*
X3173444D1*
X3097203Y2711410D2*
X3173444D1*
X3073197Y2789728D2*
X3079594D1*
Y2782228D1*
X3092875Y2766523D1*
X3094106Y2763854D1*
X3094679Y2760972D1*
X3094717Y2703760D1*
X3175982Y2703749D1*
X3175956Y2984961D1*
X3057228Y2984966D1*
X3057221Y2808393D1*
X3073197Y2789721D1*
X2896537Y2603885D2*
X2954729D1*
X2896035Y2579016D2*
X2954729D1*
X2895567Y2554148D2*
X2954729D1*
X2895102Y2529279D2*
X2954729D1*
X2894599Y2504410D2*
X2954729D1*
X2894133Y2479541D2*
X3081472D1*
X2893666Y2454672D2*
X3132714D1*
X2893163Y2429804D2*
X3132714D1*
X2892697Y2404935D2*
X3132714D1*
X2655718Y2380066D2*
X2667245D1*
X2892230D2*
X3132714D1*
X2655718Y2355197D2*
X2667245D1*
X2891729D2*
X3132714D1*
X2655718Y2330329D2*
X2667245D1*
X2891262D2*
X3132714D1*
X2655718Y2305460D2*
X2673504D1*
X2884730D2*
X3132714D1*
X2655718Y2280591D2*
X2792174D1*
X2853225D2*
X3132714D1*
X3076212Y2483413D2*
X3065672D1*
Y2488687D1*
X3054283Y2491268D1*
X2967773Y2491422D1*
X2964945Y2492220D1*
X2962381Y2493655D1*
X2960224Y2495650D1*
X2958591Y2498094D1*
X2957574Y2500850D1*
X2957229Y2503768D1*
Y2628752D1*
X2894480Y2628754D1*
X2888335Y2314333D1*
X2887537Y2311504D1*
X2886102Y2308940D1*
X2884107Y2306783D1*
X2881663Y2305150D1*
X2878907Y2304133D1*
X2875989Y2303788D1*
X2867053D1*
X2864132Y2296590D1*
X2860319Y2290368D1*
X2855581Y2284819D1*
X2850032Y2280081D1*
X2843810Y2276268D1*
X2837069Y2273476D1*
X2829974Y2271772D1*
X2822700Y2271200D1*
X2815426Y2271772D1*
X2808331Y2273476D1*
X2801590Y2276268D1*
X2795368Y2280081D1*
X2789819Y2284819D1*
X2785081Y2290368D1*
X2781268Y2296590D1*
X2778348Y2303784D1*
X2680304Y2303941D1*
X2677476Y2304739D1*
X2674911Y2306175D1*
X2672754Y2308170D1*
X2671121Y2310613D1*
X2670104Y2313369D1*
X2669759Y2316288D1*
Y2384432D1*
X2653233Y2383739D1*
X2653200Y2265190D1*
X3135220Y2265200D1*
X3135200Y2475146D1*
X3085641Y2479094D1*
X3082876Y2480090D1*
X3076233Y2483411D1*
X3022237Y2722623D2*
X3042213D1*
X3022237Y2697754D2*
X3042213D1*
X3026292Y2672885D2*
X3048457D1*
X3019725Y2747468D2*
X3019571Y2683044D1*
X3018773Y2680216D1*
X3017335Y2677649D1*
X3018678Y2675997D1*
X3023894Y2672800D1*
X3028548Y2668826D1*
X3032522Y2664172D1*
X3035718Y2658956D1*
X3037889Y2653763D1*
X3050962Y2653754D1*
X3050881Y2673661D1*
X3047107Y2677651D1*
X3045671Y2680216D1*
X3044873Y2683044D1*
X3044720Y2692498D1*
Y2747485D1*
X3019721Y2747491D1*
D26*
X1093700Y1068700D3*
Y1316731D3*
D27*
X1843700Y3326180D3*
Y3400983D3*
X2043700Y3326180D3*
Y3400983D3*
X2243700Y3326180D3*
Y3400983D3*
X2443700Y3326180D3*
Y3400983D3*
D26*
X2093700Y1068700D3*
Y1316731D3*
D27*
X893700Y3361417D3*
Y3436220D3*
X1093700Y3361417D3*
Y3436220D3*
X1293700Y3361417D3*
Y3436220D3*
X1493700Y3361417D3*
Y3436220D3*
D26*
X3093700Y1068700D3*
Y1316731D3*
D28*
X2952700Y2733700D3*
X3027503D3*
D29*
X3121700Y2720700D3*
Y2610464D3*
D28*
X2744700Y2551700D3*
X2669897D3*
D29*
X3088466Y2953721D3*
Y3063957D3*
D27*
X2806200Y1837449D3*
Y1762646D3*
X3106200Y1843700D3*
Y1768897D3*
D31*
X2965700Y2837700D3*
X3123180D3*
D32*
X3056201Y3281200D3*
D33*
X2956201D3*
X2856201D3*
X2756201D3*
D32*
X1743700Y3793700D3*
D33*
X1843700D3*
X1943700D3*
X2043700D3*
X2143700D3*
X2243700D3*
X2343700D3*
X2443700D3*
D32*
X943700Y493700D3*
D33*
X1043700D3*
X1143700D3*
X1243700D3*
D32*
X493700Y2843700D3*
D33*
X593700D3*
X693700D3*
X793700D3*
X893700D3*
X993700D3*
X1093700D3*
X1193700D3*
X1293700D3*
X1393700D3*
X1493700D3*
X1593700D3*
X1693700D3*
X1793700D3*
X1893700D3*
X1993700D3*
X2093700D3*
X2193700D3*
X2293700D3*
D32*
X1943700Y493700D3*
D33*
X2043700D3*
X2143700D3*
X2243700D3*
D32*
X793700Y3793700D3*
D33*
X893700D3*
X993700D3*
X1093700D3*
X1193700D3*
X1293700D3*
X1393700D3*
X1493700D3*
D32*
X2943700Y493700D3*
D33*
X3043700D3*
X3143700D3*
X3243700D3*
D32*
X3793700Y1693700D3*
D33*
Y1593700D3*
Y1493700D3*
Y1393700D3*
Y1293700D3*
Y1193700D3*
Y1093700D3*
Y993700D3*
D34*
X3343700Y2418700D3*
X3579920D3*
D35*
X3461810Y2603739D3*
D36*
X3383700Y3331700D3*
Y3288393D3*
Y3245086D3*
Y3201779D3*
Y3158472D3*
Y3115165D3*
Y3071857D3*
Y3028550D3*
Y2985243D3*
D37*
X3799054Y3519889D3*
D38*
X3417165D3*
D39*
Y2941936D3*
D37*
X3799054D3*
D32*
X593700Y1243700D3*
D33*
X693700D3*
X593700Y1143700D3*
X693700D3*
X593700Y1043700D3*
X693700D3*
D32*
X1593700Y1243700D3*
D33*
X1693700D3*
X1593700Y1143700D3*
X1693700D3*
X1593700Y1043700D3*
X1693700D3*
D32*
X2593700Y1243700D3*
D33*
X2693700D3*
X2593700Y1143700D3*
X2693700D3*
X2593700Y1043700D3*
X2693700D3*
D40*
X2732254Y2759991D3*
Y2998180D3*
D41*
X543700Y543700D3*
X3743700D3*
Y3743700D3*
X543700D3*
D27*
X1743700Y3200983D3*
Y3126180D3*
X1943700Y3200983D3*
Y3126180D3*
X2143700Y3200983D3*
Y3126180D3*
X2343700Y3200983D3*
Y3126180D3*
X3121700Y2460700D3*
Y2535503D3*
X1743700Y3400983D3*
Y3326180D3*
X1943700Y3400983D3*
Y3326180D3*
X2143700Y3400983D3*
Y3326180D3*
X2343700Y3400983D3*
Y3326180D3*
X793700Y3436220D3*
Y3361417D3*
X993700Y3436220D3*
Y3361417D3*
X1193700Y3436220D3*
Y3361417D3*
X1393700Y3436220D3*
Y3361417D3*
D28*
X2744700Y2460700D3*
X2669897D3*
X2666700Y2369700D3*
X2741503D3*
D27*
X2822700D3*
Y2444503D3*
X2743700Y1906200D3*
Y1981003D3*
X893700Y1599951D3*
Y1674754D3*
D20*
X493700Y2743700D3*
X593700D3*
X693700D3*
X793700D3*
X893700D3*
X993700D3*
X1093700D3*
X1193700D3*
X1293700D3*
X1393700D3*
X1493700D3*
X1593700D3*
X1693700D3*
X1793700D3*
X1893700D3*
X1993700D3*
X2093700D3*
X2193700D3*
X2293700D3*
X493700Y1843700D3*
X593700D3*
X693700D3*
X793700D3*
X893700D3*
X993700D3*
X1093700D3*
X1193700D3*
X1293700D3*
X1393700D3*
X1493700D3*
X1593700D3*
X1693700D3*
X1793700D3*
X1893700D3*
X1993700D3*
X2093700D3*
X2193700D3*
X2293700D3*
D42*
X843700Y1343700D3*
D43*
Y1243700D3*
Y1143700D3*
Y1043700D3*
Y943700D3*
Y843700D3*
Y743700D3*
Y643700D3*
X1343700D3*
Y743700D3*
Y843700D3*
Y943700D3*
Y1043700D3*
Y1143700D3*
Y1243700D3*
Y1343700D3*
D42*
X1843700D3*
D43*
Y1243700D3*
Y1143700D3*
Y1043700D3*
Y943700D3*
Y843700D3*
Y743700D3*
Y643700D3*
X2343700D3*
Y743700D3*
Y843700D3*
Y943700D3*
Y1043700D3*
Y1143700D3*
Y1243700D3*
Y1343700D3*
D42*
X2843700D3*
D43*
Y1243700D3*
Y1143700D3*
Y1043700D3*
Y943700D3*
Y843700D3*
Y743700D3*
Y643700D3*
X3343700D3*
Y743700D3*
Y843700D3*
Y943700D3*
Y1043700D3*
Y1143700D3*
Y1243700D3*
Y1343700D3*
D45*
X2819745Y2653752D3*
Y2603752D3*
Y2553752D3*
Y2503752D3*
X3032343D3*
Y2553752D3*
Y2603752D3*
Y2653752D3*
D46*
X2926044Y2578752D3*
D48*
X2993700Y1899949D3*
Y1937351D3*
Y1974752D3*
X2887401D3*
Y1937351D3*
Y1899949D3*
M02*
