G04 DipTrace 3.3.1.3*
G04 TopPaste.gbr*
%MOIN*%
G04 #@! TF.FileFunction,Paste,Top*
G04 #@! TF.Part,Single*
%ADD60R,0.035307X0.015622*%
%ADD62R,0.09515X0.130189*%
%ADD64R,0.054992X0.016016*%
%ADD74R,0.129795X0.08452*%
%ADD76R,0.047118X0.023496*%
%ADD78R,0.047118X0.039244*%
%ADD80R,0.07074X0.039244*%
%ADD82R,0.043181X0.019559*%
%ADD92R,0.090425X0.058929*%
%ADD94R,0.062866X0.054992*%
%ADD96R,0.043181X0.051055*%
%ADD98R,0.051055X0.043181*%
%ADD100R,0.054992X0.155386*%
%FSLAX26Y26*%
G04*
G70*
G90*
G75*
G01*
G04 TopPaste*
%LPD*%
D100*
X1093700Y1068700D3*
Y1316731D3*
D98*
X1843700Y3326180D3*
Y3400983D3*
X2043700Y3326180D3*
Y3400983D3*
X2243700Y3326180D3*
Y3400983D3*
X2443700Y3326180D3*
Y3400983D3*
D100*
X2093700Y1068700D3*
Y1316731D3*
D98*
X893700Y3361417D3*
Y3436220D3*
X1093700Y3361417D3*
Y3436220D3*
X1293700Y3361417D3*
Y3436220D3*
X1493700Y3361417D3*
Y3436220D3*
D100*
X3093700Y1068700D3*
Y1316731D3*
D96*
X2952700Y2733700D3*
X3027503D3*
D94*
X3121700Y2720700D3*
Y2610464D3*
D96*
X2744700Y2551700D3*
X2669897D3*
D94*
X3088466Y2953721D3*
Y3063957D3*
D98*
X2806200Y1837449D3*
Y1762646D3*
X3106200Y1843700D3*
Y1768897D3*
D92*
X2965700Y2837700D3*
X3123180D3*
D82*
X3383700Y3331700D3*
Y3288393D3*
Y3245086D3*
Y3201779D3*
Y3158472D3*
Y3115165D3*
Y3071857D3*
Y3028550D3*
Y2985243D3*
D80*
X3799054Y3519889D3*
D78*
X3417165D3*
D76*
Y2941936D3*
D80*
X3799054D3*
D74*
X2732254Y2759991D3*
Y2998180D3*
D98*
X1743700Y3200983D3*
Y3126180D3*
X1943700Y3200983D3*
Y3126180D3*
X2143700Y3200983D3*
Y3126180D3*
X2343700Y3200983D3*
Y3126180D3*
X3121700Y2460700D3*
Y2535503D3*
X1743700Y3400983D3*
Y3326180D3*
X1943700Y3400983D3*
Y3326180D3*
X2143700Y3400983D3*
Y3326180D3*
X2343700Y3400983D3*
Y3326180D3*
X793700Y3436220D3*
Y3361417D3*
X993700Y3436220D3*
Y3361417D3*
X1193700Y3436220D3*
Y3361417D3*
X1393700Y3436220D3*
Y3361417D3*
D96*
X2744700Y2460700D3*
X2669897D3*
X2666700Y2369700D3*
X2741503D3*
D98*
X2822700D3*
Y2444503D3*
X2743700Y1906200D3*
Y1981003D3*
X893700Y1599951D3*
Y1674754D3*
D64*
X2819745Y2653752D3*
Y2603752D3*
Y2553752D3*
Y2503752D3*
X3032343D3*
Y2553752D3*
Y2603752D3*
Y2653752D3*
D62*
X2926044Y2578752D3*
D60*
X2993700Y1899949D3*
Y1937351D3*
Y1974752D3*
X2887401D3*
Y1937351D3*
Y1899949D3*
M02*
